<mxfile host="app.diagrams.net" modified="2023-05-20T12:35:19.480Z" agent="Mozilla/5.0 (X11; Ubuntu; Linux x86_64; rv:109.0) Gecko/20100101 Firefox/113.0" version="21.3.2" etag="_Cz18Ftv8ZVrSU3HMFsZ" type="github">
  <diagram name="Page-1" id="gSNOf4BpmLg7rDP2Jdg2">
    <mxGraphModel>
      <root>
        <mxCell id="0" />
        <mxCell id="1" parent="0" />
      </root>
    </mxGraphModel>
  </diagram>
</mxfile>
